<svg xmlns="http://www.w3.org/2000/svg" viewBox="0 0 2500 2500" fill="none">
  <path d="M1250 2500C1940.36 2500 2500 1940.36 2500 1250C2500 559.644 1940.36 0 1250 0C559.644 0 0 559.644 0 1250C0 1940.36 559.644 2500 1250 2500Z" fill="#F0B90B"/>
  <path d="M1250 1565.38L998.077 1313.46L1250 1061.54L1501.92 1313.46L1250 1565.38ZM748.077 1063.46L998.077 1313.46L748.077 1563.46L498.077 1313.46L748.077 1063.46ZM1751.92 1063.46L2001.92 1313.46L1751.92 1563.46L1501.92 1313.46L1751.92 1063.46ZM1250 561.538L1500 811.538H1000L1250 561.538ZM1250 1938.46L1000 1688.46H1500L1250 1938.46ZM1250 913.462L1126.92 790.385L875 1042.31L1250 1417.31L1625 1042.31L1373.08 790.385L1250 913.462ZM1250 1586.54L875 1211.54L1126.92 1463.46L1250 1340.38L1373.08 1463.46L1625 1211.54L1250 1586.54Z" fill="white"/>
</svg>